<?xml version="1.0" encoding="utf-8"?>
<!-- Generator: Adobe Illustrator 23.0.3, SVG Export Plug-In . SVG Version: 6.00 Build 0)  -->
<svg version="1.1" id="Capa_1" xmlns="http://www.w3.org/2000/svg" xmlns:xlink="http://www.w3.org/1999/xlink" x="0px" y="0px"
	 viewBox="0 0 1200 1200" enable-background="new 0 0 1200 1200" xml:space="preserve">
<g>
	<g>
		<path fill="#AD96D6" d="M1149.998,600c0,303.738-246.243,549.966-549.999,549.966S50.001,903.738,50.001,600
			S296.244,50.034,600,50.034S1149.998,296.262,1149.998,600z"/>
		<path fill="#AD96D6" d="M1149.998,600c0,303.738-246.243,549.966-549.999,549.966S50.001,903.738,50.001,600
			S296.244,50.034,600,50.034S1149.998,296.262,1149.998,600z"/>
		<g>
			<path fill="#FFDDB7" d="M1149.998,600c0,303.738-246.243,549.966-549.999,549.966S50.001,903.738,50.001,600
				S296.244,50.034,600,50.034S1149.998,296.262,1149.998,600z"/>
		</g>
	</g>
	<g>
		<path fill="#AD96D6" d="M600,50.034C296.243,50.034,50,296.262,50,600s246.243,549.966,550,549.966S1150,903.738,1150,600
			S903.757,50.034,600,50.034z M564.501,1023.237c-2.013,7.125-8.503,11.775-15.552,11.775c-1.451,0-2.935-0.197-4.405-0.612
			c-269.577-76.218-387.421-298.648-361.433-469.241c1.348-8.83,9.653-14.873,18.416-13.546c8.834,1.342,14.896,9.587,13.553,18.417
			C191.179,726.941,301.602,932.11,553.34,1003.28C561.936,1005.711,566.926,1014.648,564.501,1023.237z M811.465,551.483
			l-70.821-0.204c-3.024-0.009-5.834,1.566-7.405,4.152l-35.335,58.179c-4.54,7.474-16.038,4.238-16.012-4.506l0.194-67.768
			c0.008-3.098-1.643-5.964-4.328-7.508l-59.854-34.431c-7.487-4.307-4.71-15.722,3.918-16.108l70.383-3.149
			c2.949-0.132,5.626-1.761,7.098-4.319l34.675-60.277c4.306-7.487,15.721-4.71,16.107,3.919l3.288,73.513
			c0.129,2.876,1.684,5.499,4.144,6.993l58.453,35.503C823.446,540.011,820.208,551.508,811.465,551.483z M945.045,373.019
			c-21.299,12.146-48.41,4.727-60.556-16.571c-12.146-21.299-4.726-48.411,16.571-60.557c21.297-12.146,48.41-4.727,60.556,16.571
			C973.763,333.761,966.344,360.873,945.045,373.019z"/>
		<path fill="#AD96D6" d="M600,50.034C296.243,50.034,50,296.262,50,600s246.243,549.966,550,549.966S1150,903.738,1150,600
			S903.757,50.034,600,50.034z M564.501,1023.237c-2.013,7.125-8.503,11.775-15.552,11.775c-1.451,0-2.935-0.197-4.405-0.612
			c-269.577-76.218-387.421-298.648-361.433-469.241c1.348-8.83,9.653-14.873,18.416-13.546c8.834,1.342,14.896,9.587,13.553,18.417
			C191.179,726.941,301.602,932.11,553.34,1003.28C561.936,1005.711,566.926,1014.648,564.501,1023.237z M811.465,551.483
			l-70.821-0.204c-3.024-0.009-5.834,1.566-7.405,4.152l-35.335,58.179c-4.54,7.474-16.038,4.238-16.012-4.506l0.194-67.768
			c0.008-3.098-1.643-5.964-4.328-7.508l-59.854-34.431c-7.487-4.307-4.71-15.722,3.918-16.108l70.383-3.149
			c2.949-0.132,5.626-1.761,7.098-4.319l34.675-60.277c4.306-7.487,15.721-4.71,16.107,3.919l3.288,73.513
			c0.129,2.876,1.684,5.499,4.144,6.993l58.453,35.503C823.446,540.011,820.208,551.508,811.465,551.483z M945.045,373.019
			c-21.299,12.146-48.41,4.727-60.556-16.571c-12.146-21.299-4.726-48.411,16.571-60.557c21.297-12.146,48.41-4.727,60.556,16.571
			C973.763,333.761,966.344,360.873,945.045,373.019z"/>
		<g>
			<path fill="#A897C9" d="M600,50.034C296.243,50.034,50,296.262,50,600s246.243,549.966,550,549.966S1150,903.738,1150,600
				S903.757,50.034,600,50.034z M564.501,1023.237c-2.013,7.125-8.503,11.775-15.552,11.775c-1.451,0-2.935-0.197-4.405-0.612
				c-269.577-76.218-387.421-298.648-361.433-469.241c1.348-8.83,9.653-14.873,18.416-13.546
				c8.834,1.342,14.896,9.587,13.553,18.417C191.179,726.941,301.602,932.11,553.34,1003.28
				C561.936,1005.711,566.926,1014.648,564.501,1023.237z M811.465,551.483l-70.821-0.204c-3.024-0.009-5.834,1.566-7.405,4.152
				l-35.335,58.179c-4.54,7.474-16.038,4.238-16.012-4.506l0.194-67.768c0.008-3.098-1.643-5.964-4.328-7.508l-59.854-34.431
				c-7.487-4.307-4.71-15.722,3.918-16.108l70.383-3.149c2.949-0.132,5.626-1.761,7.098-4.319l34.675-60.277
				c4.306-7.487,15.721-4.71,16.107,3.919l3.288,73.513c0.129,2.876,1.684,5.499,4.144,6.993l58.453,35.503
				C823.446,540.011,820.208,551.508,811.465,551.483z M945.045,373.019c-21.299,12.146-48.41,4.727-60.556-16.571
				c-12.146-21.299-4.726-48.411,16.571-60.557c21.297-12.146,48.41-4.727,60.556,16.571
				C973.763,333.761,966.344,360.873,945.045,373.019z"/>
		</g>
	</g>
	<g>
		<path fill="#AD96D6" d="M600,50.034C296.243,50.034,50,296.262,50,600s246.243,549.966,550,549.966S1150,903.738,1150,600
			S903.757,50.034,600,50.034z M1001.221,559.73c12.461,21.852,4.851,49.669-17.001,62.131c-21.852,12.462-49.67,4.85-62.131-17.002
			c-12.461-21.852-4.851-49.669,17.001-62.131C960.942,530.266,988.76,537.878,1001.221,559.73z M901.06,295.891
			c21.297-12.146,48.41-4.727,60.556,16.571c12.146,21.298,4.728,48.41-16.571,60.556c-21.299,12.146-48.41,4.727-60.556-16.571
			C872.342,335.15,879.763,308.038,901.06,295.891z M648.43,179.348c24.8-14.143,56.37-5.504,70.513,19.296
			c14.145,24.801,5.505,56.371-19.295,70.514c-24.802,14.143-56.37,5.504-70.515-19.296
			C614.991,225.062,623.629,193.492,648.43,179.348z M621.822,483.289l70.383-3.149c2.949-0.132,5.626-1.761,7.098-4.319
			l34.675-60.277c4.306-7.487,15.721-4.71,16.107,3.919l3.288,73.513c0.129,2.876,1.684,5.499,4.144,6.993l58.453,35.503
			c7.475,4.539,4.237,16.037-4.506,16.012l-70.821-0.204c-3.024-0.009-5.834,1.566-7.405,4.152l-35.335,58.179
			c-4.54,7.474-16.038,4.238-16.012-4.506l0.194-67.768c0.008-3.098-1.643-5.964-4.328-7.508l-59.854-34.431
			C610.416,495.09,613.194,483.675,621.822,483.289z M514.628,1090.474c-269.446-48.066-448.91-305.46-400.844-574.907
			c38.385-215.18,210.272-372.973,415.186-403.323c0,0-136.213,240.607-37.485,517.402
			c98.728,276.795,433.126,348.87,433.126,348.87C815.613,1072.045,667.049,1117.664,514.628,1090.474z M996.437,781.076
			l-47.296,30.426c-2.021,1.299-3.214,3.561-3.145,5.962l1.552,54.03c0.2,6.941-8.86,9.745-12.619,3.906l-29.113-45.257
			c-1.33-2.069-3.668-3.266-6.125-3.137l-54.755,2.878c-6.849,0.36-9.924-8.447-4.34-12.428l45.558-32.472
			c1.91-1.36,2.992-3.601,2.867-5.942l-2.897-55.142c-0.361-6.849,8.448-9.924,12.429-4.339l33.914,47.583
			c1.328,1.862,3.494,2.939,5.779,2.874l54.284-1.558C999.471,768.259,1002.277,777.319,996.437,781.076z"/>
		<path fill="#AD96D6" d="M600,50.034C296.243,50.034,50,296.262,50,600s246.243,549.966,550,549.966S1150,903.738,1150,600
			S903.757,50.034,600,50.034z M1001.221,559.73c12.461,21.852,4.851,49.669-17.001,62.131c-21.852,12.462-49.67,4.85-62.131-17.002
			c-12.461-21.852-4.851-49.669,17.001-62.131C960.942,530.266,988.76,537.878,1001.221,559.73z M901.06,295.891
			c21.297-12.146,48.41-4.727,60.556,16.571c12.146,21.298,4.728,48.41-16.571,60.556c-21.299,12.146-48.41,4.727-60.556-16.571
			C872.342,335.15,879.763,308.038,901.06,295.891z M648.43,179.348c24.8-14.143,56.37-5.504,70.513,19.296
			c14.145,24.801,5.505,56.371-19.295,70.514c-24.802,14.143-56.37,5.504-70.515-19.296
			C614.991,225.062,623.629,193.492,648.43,179.348z M621.822,483.289l70.383-3.149c2.949-0.132,5.626-1.761,7.098-4.319
			l34.675-60.277c4.306-7.487,15.721-4.71,16.107,3.919l3.288,73.513c0.129,2.876,1.684,5.499,4.144,6.993l58.453,35.503
			c7.475,4.539,4.237,16.037-4.506,16.012l-70.821-0.204c-3.024-0.009-5.834,1.566-7.405,4.152l-35.335,58.179
			c-4.54,7.474-16.038,4.238-16.012-4.506l0.194-67.768c0.008-3.098-1.643-5.964-4.328-7.508l-59.854-34.431
			C610.416,495.09,613.194,483.675,621.822,483.289z M514.628,1090.474c-269.446-48.066-448.91-305.46-400.844-574.907
			c38.385-215.18,210.272-372.973,415.186-403.323c0,0-136.213,240.607-37.485,517.402
			c98.728,276.795,433.126,348.87,433.126,348.87C815.613,1072.045,667.049,1117.664,514.628,1090.474z M996.437,781.076
			l-47.296,30.426c-2.021,1.299-3.214,3.561-3.145,5.962l1.552,54.03c0.2,6.941-8.86,9.745-12.619,3.906l-29.113-45.257
			c-1.33-2.069-3.668-3.266-6.125-3.137l-54.755,2.878c-6.849,0.36-9.924-8.447-4.34-12.428l45.558-32.472
			c1.91-1.36,2.992-3.601,2.867-5.942l-2.897-55.142c-0.361-6.849,8.448-9.924,12.429-4.339l33.914,47.583
			c1.328,1.862,3.494,2.939,5.779,2.874l54.284-1.558C999.471,768.259,1002.277,777.319,996.437,781.076z"/>
		<g>
			<path fill="#564D8F" d="M600,50.034C296.243,50.034,50,296.262,50,600s246.243,549.966,550,549.966S1150,903.738,1150,600
				S903.757,50.034,600,50.034z M1001.221,559.73c12.461,21.852,4.851,49.669-17.001,62.131
				c-21.852,12.462-49.67,4.85-62.131-17.002c-12.461-21.852-4.851-49.669,17.001-62.131
				C960.942,530.266,988.76,537.878,1001.221,559.73z M901.06,295.891c21.297-12.146,48.41-4.727,60.556,16.571
				c12.146,21.298,4.728,48.41-16.571,60.556c-21.299,12.146-48.41,4.727-60.556-16.571
				C872.342,335.15,879.763,308.038,901.06,295.891z M648.43,179.348c24.8-14.143,56.37-5.504,70.513,19.296
				c14.145,24.801,5.505,56.371-19.295,70.514c-24.802,14.143-56.37,5.504-70.515-19.296
				C614.991,225.062,623.629,193.492,648.43,179.348z M621.822,483.289l70.383-3.149c2.949-0.132,5.626-1.761,7.098-4.319
				l34.675-60.277c4.306-7.487,15.721-4.71,16.107,3.919l3.288,73.513c0.129,2.876,1.684,5.499,4.144,6.993l58.453,35.503
				c7.475,4.539,4.237,16.037-4.506,16.012l-70.821-0.204c-3.024-0.009-5.834,1.566-7.405,4.152l-35.335,58.179
				c-4.54,7.474-16.038,4.238-16.012-4.506l0.194-67.768c0.008-3.098-1.643-5.964-4.328-7.508l-59.854-34.431
				C610.416,495.09,613.194,483.675,621.822,483.289z M514.628,1090.474c-269.446-48.066-448.91-305.46-400.844-574.907
				c38.385-215.18,210.272-372.973,415.186-403.323c0,0-136.213,240.607-37.485,517.402
				c98.728,276.795,433.126,348.87,433.126,348.87C815.613,1072.045,667.049,1117.664,514.628,1090.474z M996.437,781.076
				l-47.296,30.426c-2.021,1.299-3.214,3.561-3.145,5.962l1.552,54.03c0.2,6.941-8.86,9.745-12.619,3.906l-29.113-45.257
				c-1.33-2.069-3.668-3.266-6.125-3.137l-54.755,2.878c-6.849,0.36-9.924-8.447-4.34-12.428l45.558-32.472
				c1.91-1.36,2.992-3.601,2.867-5.942l-2.897-55.142c-0.361-6.849,8.448-9.924,12.429-4.339l33.914,47.583
				c1.328,1.862,3.494,2.939,5.779,2.874l54.284-1.558C999.471,768.259,1002.277,777.319,996.437,781.076z"/>
		</g>
	</g>
</g>
</svg>
